<?xml version="1.0" encoding="utf-8"?>
<!-- Generator: Adobe Illustrator 16.0.0, SVG Export Plug-In . SVG Version: 6.00 Build 0)  -->
<!DOCTYPE svg PUBLIC "-//W3C//DTD SVG 1.1//EN" "http://www.w3.org/Graphics/SVG/1.1/DTD/svg11.dtd">
<svg version="1.1" id="Layer_1" xmlns="http://www.w3.org/2000/svg" xmlns:xlink="http://www.w3.org/1999/xlink" x="0px" y="0px"
	 width="346.233px" height="257.276px" viewBox="122.917 260.349 346.233 257.276"
	 enable-background="new 122.917 260.349 346.233 257.276" xml:space="preserve">
<path fill="#CCCCCB" d="M380.563,517.625c-0.738,0-1.107,0-1.846-0.369c-2.215-0.738-3.691-2.953-3.691-5.168v-52.415H192.311
	c-38.388,0-69.394-31.006-69.394-69.394v-60.536c0-38.389,31.006-69.395,69.394-69.395h207.445
	c38.389,0,69.395,31.006,69.395,69.395v60.536c0,20.67-9.228,40.234-25.469,53.522l-59.429,71.979
	C383.515,516.887,382.039,517.625,380.563,517.625z M192.311,271.422c-32.113,0-58.321,26.208-58.321,58.321v60.536
	c0,32.113,26.208,58.321,58.321,58.321h188.251c2.952,0,5.536,2.584,5.536,5.537v42.448l49.831-60.166
	c0.369-0.369,0.369-0.369,0.738-0.738c13.657-11.074,21.778-27.685,21.778-45.402v-60.536c0-32.113-26.207-58.321-58.321-58.321
	H192.311z"/>
<g>
	<path fill="#CCCCCB" d="M159.829,351.521h41.341v9.966h-41.341V351.521z"/>
	<path fill="#CCCCCB" d="M216.304,387.326v-68.287h19.194l20.671,58.321h1.477v-58.321h11.073v68.287h-18.825l-21.04-58.69h-1.477
		v58.69H216.304z"/>
	<path fill="#CCCCCB" d="M301.201,336.387c8.121,0,13.657,2.215,16.979,6.644c3.322,4.43,5.168,10.705,5.168,19.563
		c0,4.429-0.369,8.121-1.107,11.442c-0.738,3.322-2.215,5.906-3.691,8.121c-1.846,2.214-4.061,3.691-6.644,4.798
		c-2.953,1.107-6.275,1.477-10.336,1.477c-4.06,0-7.382-0.369-10.335-1.477c-2.953-1.107-5.168-2.584-7.014-4.798
		c-1.845-2.215-2.953-4.799-3.691-8.121c-0.738-3.322-1.107-7.013-1.107-11.442c0-4.061,0.369-7.382,1.107-10.705
		c0.738-3.322,1.846-5.906,3.691-8.121c1.846-2.215,4.061-4.06,6.645-5.167C293.45,336.756,296.772,336.387,301.201,336.387z
		 M292.343,375.145c1.476,2.584,4.429,4.061,8.858,4.061c2.215,0,4.061-0.369,5.537-1.107s2.584-1.477,3.322-2.953
		c0.738-1.476,1.477-3.322,1.846-5.167s0.369-4.798,0.369-7.751c0-5.906-0.738-10.335-2.584-12.919
		c-1.477-2.584-4.43-3.691-8.859-3.691c-4.43,0-7.014,1.107-8.859,3.691c-1.477,2.583-2.584,6.644-2.584,12.919
		C289.759,368.131,290.866,372.561,292.343,375.145z"/>
	<path fill="#CCCCCB" d="M342.912,408.734h-10.705v-71.24h10.705v2.953c4.43-2.953,8.858-4.06,12.919-4.06
		c3.322,0,6.275,0.369,8.49,1.477c2.214,1.107,4.429,2.583,5.905,4.429c1.477,2.215,2.584,4.799,3.322,8.121
		c0.738,3.322,1.107,7.382,1.107,12.181c0,4.798-0.369,8.859-1.107,12.181c-0.738,3.322-2.215,5.906-4.061,8.121
		c-1.846,1.845-4.06,3.322-7.013,4.429s-6.275,1.477-10.336,1.477c-2.584,0-5.905-0.369-9.597-0.738L342.912,408.734
		L342.912,408.734z M353.985,345.984c-2.953,0-6.274,0.738-9.228,2.215l-1.477,0.738v29.529c1.477,0.369,2.584,0.369,4.061,0.738
		c1.476,0.369,2.952,0.369,4.429,0.369c2.215,0,4.061-0.369,5.537-1.107s2.584-1.477,3.691-2.953
		c1.107-1.476,1.477-2.953,1.846-5.167s0.738-4.798,0.738-7.751C363.952,351.152,360.63,345.984,353.985,345.984z"/>
	<path fill="#CCCCCB" d="M419.319,378.098l2.953-0.369l0.369,8.121c-3.691,0.738-7.382,1.477-10.704,1.846s-6.645,0.738-9.598,0.738
		c-7.382,0-12.55-1.846-15.872-5.906c-3.322-4.061-4.798-10.705-4.798-19.563c0-17.718,7.382-26.577,21.777-26.577
		c14.026,0,21.04,7.751,21.04,22.885l-0.738,7.751h-31.006c0,4.061,1.107,7.014,2.584,9.228c1.846,1.846,4.798,2.953,9.597,2.953
		C409.354,378.836,414.152,378.467,419.319,378.098z M392.005,358.534h21.04c0-5.167-0.738-8.49-2.215-10.335
		c-1.477-1.846-4.061-2.953-8.121-2.953c-3.691,0-6.644,1.107-8.12,2.953C393.112,350.414,392.374,353.736,392.005,358.534z"/>
</g>
</svg>
