<?xml version="1.0" encoding="utf-8"?>
<!-- Generator: Adobe Illustrator 16.0.0, SVG Export Plug-In . SVG Version: 6.00 Build 0)  -->
<!DOCTYPE svg PUBLIC "-//W3C//DTD SVG 1.1//EN" "http://www.w3.org/Graphics/SVG/1.1/DTD/svg11.dtd">
<svg version="1.1" id="Layer_1" xmlns="http://www.w3.org/2000/svg" xmlns:xlink="http://www.w3.org/1999/xlink" x="0px" y="0px"
	 width="346.972px" height="257.276px" viewBox="122.917 259.979 346.972 257.276"
	 enable-background="new 122.917 259.979 346.972 257.276" xml:space="preserve">
<path fill="#57C8E0" d="M399.756,259.979H192.311c-38.388,0-69.394,31.006-69.394,69.395v60.536c0,20.67,9.228,40.234,25.469,53.522
	l59.428,71.979c1.107,1.477,2.583,1.846,4.429,1.846c0.738,0,1.107,0,1.846-0.369c2.215-0.738,3.691-2.953,3.691-5.168v-52.046
	h182.714c38.389,0,69.395-31.006,69.395-69.394v-60.905C469.52,291.354,438.145,259.979,399.756,259.979z"/>
<g>
	<path fill="#FFFFFF" d="M186.405,367.024v-9.597h17.718v-17.717h9.966v17.717h18.087v9.597h-18.087v18.087h-9.597v-18.087H186.405z
		"/>
	<path fill="#FFFFFF" d="M270.195,386.957h-11.073v-28.053l-21.409-40.234h12.55l14.396,29.161l14.396-29.161h12.181l-21.409,40.234
		L270.195,386.957L270.195,386.957z"/>
	<path fill="#FFFFFF" d="M324.087,378.098l2.953-0.369l0.369,8.121c-3.691,0.738-7.383,1.477-10.705,1.846
		c-3.69,0.369-7.013,0.369-9.966,0.369c-7.382,0-12.55-1.846-15.872-5.906c-3.322-4.061-4.799-10.705-4.799-19.563
		c0-17.718,7.382-26.577,21.778-26.577c14.026,0,21.04,7.751,21.04,22.885l-0.738,7.751h-31.006c0,4.061,1.107,7.014,2.584,9.228
		c1.845,1.846,4.798,2.953,9.597,2.953S318.919,378.467,324.087,378.098z M296.772,358.534h21.04c0-5.167-0.738-8.49-2.215-10.335
		c-1.476-1.846-4.06-2.953-8.12-2.953c-3.691,0-6.644,1.107-8.121,2.953C297.879,350.044,297.141,353.736,296.772,358.534z"/>
	<path fill="#FFFFFF" d="M349.925,408.365h-10.704v-71.24h10.704v2.953c4.43-2.953,8.859-4.061,12.92-4.061
		c3.321,0,6.274,0.369,8.489,1.477s4.43,2.584,5.906,4.429c1.477,2.215,2.584,4.799,3.322,8.121
		c0.738,3.322,1.107,7.383,1.107,12.181s-0.369,8.859-1.107,12.181c-0.738,3.322-2.215,5.906-4.061,8.121
		c-1.846,1.845-4.061,3.322-7.014,4.429s-6.274,1.477-10.335,1.477c-2.584,0-5.906-0.369-9.598-0.738L349.925,408.365
		L349.925,408.365z M360.63,345.615c-2.953,0-6.275,0.738-9.229,2.215l-1.477,0.738v29.529c1.477,0.369,2.584,0.369,4.061,0.738
		s2.953,0.369,4.43,0.369c2.215,0,4.061-0.369,5.537-1.107c1.476-0.738,2.583-1.477,3.69-2.953c1.107-1.476,1.477-2.953,1.846-5.167
		s0.738-4.798,0.738-7.751C370.596,351.152,367.273,345.615,360.63,345.615z"/>
</g>
</svg>
