<?xml version="1.0" encoding="utf-8"?>
<!-- Generator: Adobe Illustrator 22.1.0, SVG Export Plug-In . SVG Version: 6.00 Build 0)  -->
<svg version="1.1" id="Layer_1" xmlns="http://www.w3.org/2000/svg" xmlns:xlink="http://www.w3.org/1999/xlink" x="0px" y="0px"
	 viewBox="0 0 353 184.3" style="enable-background:new 0 0 353 184.3;" xml:space="preserve">
<style type="text/css">
	.st0{fill:#FFFFFF;stroke:#231F20;stroke-width:1.1411;stroke-miterlimit:10;}
	.st1{fill:none;stroke:#FFFFFF;stroke-miterlimit:10;}
	.st2{fill:#FFFFFF;}
</style>
<path class="st0" d="M121.5,75.8"/>
<path class="st1" d="M121.5,73.6c-0.2-7.9,0.5-10.5,0.5-10.5c-0.3-1.1,0.4-2.2,1.5-2.5c0,0,14.8-14.2,41.5-20.8
	c25.1-6.3,46.3-2.9,46.3-2.9c1.1-0.3,2.2,0.3,2.5,1.4c0,0,13.5,17.9,19.1,41.1c6.1,23.2,3.4,42.3,3.4,42.3c0.3,1.1-0.4,2.2-1.5,2.5
	c0,0-15,11.7-42,19c-26,7.1-45.8,4.7-45.8,4.7c-1.1,0.3-2.2-0.3-2.5-1.4c0,0-12.2-13.7-18.8-39.7c-0.3-1.3-0.6-2.6-0.9-3.9"/>
<g>
	<path class="st2" d="M50.1,78.4c0.7-0.3,1.4-0.6,2-0.7c0.6-0.1,1.1-0.1,1.7-0.1s1.1,0,1.7,0.1s1.2,0.3,1.9,0.6
		c0.7,0.3,1.3,0.7,1.9,1.2c0.5,0.5,1,1.1,1.5,2s0.7,1.8,0.8,2.9c0,0.5-0.2,0.7-0.6,0.7h-0.3c-0.4,0-0.6-0.2-0.6-0.6
		c-0.1-0.9-0.3-1.7-0.7-2.3c-0.3-0.7-0.7-1.2-1.2-1.5c-0.4-0.4-0.9-0.7-1.5-0.9c-0.8-0.4-1.6-0.5-2.4-0.5c-0.7,0-1.3,0-1.8,0.1
		c-0.5,0.1-1,0.3-1.6,0.5c-0.6,0.3-1.1,0.6-1.5,1.1c-0.4,0.5-0.8,1.1-1.1,1.9s-0.5,1.8-0.5,2.8v6.2c0,1.1,0.2,2,0.5,2.8
		c0.3,0.8,0.7,1.5,1.2,1.9c0.5,0.5,1,0.8,1.7,1.1c1,0.4,2,0.7,2.8,0.7s1.6-0.1,2.3-0.2c0.6-0.2,1.2-0.4,1.9-0.8c1.3-0.8,2-2.4,2-4.6
		c0-0.4,0.1-0.6,0.2-0.7c0.1-0.1,0.3-0.2,0.5-0.2h0.3c0.4,0,0.6,0.2,0.6,0.6c0,1.3-0.2,2.4-0.6,3.4s-0.9,1.7-1.4,2.2
		c-0.5,0.5-1.2,0.9-1.9,1.2c-1.1,0.4-2.1,0.7-3,0.7c-0.9,0-1.6-0.1-2.2-0.2c-0.6-0.1-1.3-0.3-2.1-0.7c-0.8-0.4-1.4-0.8-2-1.4
		c-0.6-0.5-1.1-1.3-1.5-2.3c-0.4-1-0.6-2.1-0.6-3.4v-6.4c0-1.3,0.2-2.5,0.6-3.5c0.4-1,0.9-1.8,1.4-2.3
		C48.7,79.2,49.3,78.7,50.1,78.4z"/>
	<path class="st2" d="M66,77.8h0.3c0.2,0,0.3,0.1,0.5,0.2c0.1,0.1,0.2,0.3,0.2,0.4v20.9c0,0.2-0.1,0.3-0.2,0.4
		c-0.1,0.1-0.3,0.2-0.5,0.2H66c-0.2,0-0.3-0.1-0.4-0.2c-0.1-0.1-0.2-0.3-0.2-0.4V78.4c0-0.2,0.1-0.3,0.2-0.4
		C65.7,77.8,65.9,77.8,66,77.8z M68.2,87.5h8.2c0.2,0,0.3,0.1,0.4,0.2C77,87.8,77,88,77,88.1v0.3c0,0.2-0.1,0.3-0.2,0.4
		c-0.1,0.1-0.3,0.2-0.4,0.2h-8.2c-0.2,0-0.3-0.1-0.4-0.2c-0.1-0.1-0.2-0.3-0.2-0.4v-0.3c0-0.2,0.1-0.3,0.2-0.4
		C67.9,87.6,68.1,87.5,68.2,87.5z M78.2,77.8h0.3c0.2,0,0.3,0.1,0.5,0.2c0.1,0.1,0.2,0.3,0.2,0.4v20.9c0,0.2-0.1,0.3-0.2,0.4
		c-0.1,0.1-0.3,0.2-0.5,0.2h-0.3c-0.2,0-0.3-0.1-0.4-0.2c-0.1-0.1-0.2-0.3-0.2-0.4V78.4c0-0.2,0.1-0.3,0.2-0.4
		C77.9,77.8,78,77.8,78.2,77.8z"/>
	<path class="st2" d="M90.3,78.6c0.2-0.6,0.6-0.9,1.2-0.9s1,0.3,1.2,0.9l7.3,20.4c0,0.1,0,0.1,0,0.2c0,0.4-0.2,0.6-0.6,0.6h-0.4
		c-0.3,0-0.5-0.1-0.6-0.4l-6.9-19.6l-6.9,19.6c-0.1,0.3-0.3,0.4-0.6,0.4h-0.4c-0.4,0-0.6-0.2-0.6-0.6c0-0.1,0-0.2,0-0.2L90.3,78.6z
		 M88.8,90.2h5.5c0.2,0,0.3,0.1,0.4,0.2c0.1,0.1,0.2,0.3,0.2,0.5v0.3c0,0.2-0.1,0.3-0.2,0.5c-0.1,0.1-0.3,0.2-0.4,0.2h-5.5
		c-0.4,0-0.6-0.2-0.6-0.6v-0.3C88.2,90.4,88.4,90.2,88.8,90.2z"/>
	<path class="st2" d="M105.4,77.8h4.3c5.1,0,7.7,2,7.7,6c0,1.6-0.5,2.9-1.5,4.2c-1,1.2-2.6,1.8-4.7,1.8h-0.3l6.8,9
		c0.3,0.4,0.4,0.6,0.4,0.7c0,0.3-0.1,0.5-0.4,0.5h-0.6c-0.3,0-0.5-0.1-0.6-0.3l-7.3-9.6c-0.2-0.3-0.3-0.6-0.3-0.8c0-0.7,0.4-1,1.1-1
		h1.4c0.9,0,1.6-0.1,2.3-0.4c0.6-0.3,1.1-0.7,1.4-1.1c0.6-0.9,0.9-1.8,0.9-2.8c0-3-2-4.5-6.1-4.5h-4v19.9c0,0.2-0.1,0.3-0.2,0.4
		c-0.1,0.1-0.3,0.2-0.5,0.2h-0.3c-0.2,0-0.3-0.1-0.5-0.2c-0.1-0.1-0.2-0.3-0.2-0.4v-20c0-0.6,0.1-1,0.3-1.2
		C104.6,77.9,104.9,77.8,105.4,77.8z"/>
	<path class="st2" d="M121.4,77.8h0.3c0.2,0,0.3,0.1,0.4,0.2c0.1,0.1,0.2,0.3,0.2,0.4v20h10.6c0.4,0,0.6,0.2,0.6,0.6v0.3
		c0,0.2-0.1,0.3-0.2,0.4c-0.1,0.1-0.3,0.2-0.4,0.2H122c-0.9,0-1.3-0.5-1.3-1.4V78.4c0-0.2,0.1-0.3,0.2-0.4
		C121,77.8,121.2,77.8,121.4,77.8z"/>
	<path class="st2" d="M139.4,77.8h11c0.2,0,0.3,0.1,0.4,0.2c0.1,0.1,0.2,0.3,0.2,0.4v0.3c0,0.2-0.1,0.3-0.2,0.5
		c-0.1,0.1-0.3,0.2-0.4,0.2h-10.7v19h10.7c0.2,0,0.3,0.1,0.4,0.2c0.1,0.1,0.2,0.3,0.2,0.5v0.3c0,0.2-0.1,0.3-0.2,0.4
		c-0.1,0.1-0.3,0.2-0.4,0.2h-11.1c-0.5,0-0.8-0.1-1-0.3s-0.2-0.5-0.2-0.9V79c0-0.4,0.1-0.7,0.3-0.9
		C138.6,77.9,138.9,77.8,139.4,77.8z M141.6,87.7h6.8c0.2,0,0.3,0.1,0.5,0.2c0.1,0.1,0.2,0.3,0.2,0.4v0.3c0,0.4-0.2,0.6-0.6,0.6
		h-6.8c-0.4,0-0.6-0.2-0.6-0.6v-0.3c0-0.2,0.1-0.3,0.2-0.4C141.3,87.7,141.4,87.7,141.6,87.7z"/>
	<path class="st2" d="M155.9,82.8c0-1.4,0.6-2.5,1.7-3.6c1.1-1,2.6-1.5,4.6-1.5c1.9,0,3.6,0.5,4.9,1.5c1.3,1,2,2.5,2.1,4.6
		c0,0.2-0.1,0.3-0.2,0.5c-0.1,0.1-0.3,0.2-0.4,0.2h-0.3c-0.1,0-0.3-0.1-0.4-0.2c-0.1-0.1-0.2-0.3-0.2-0.4c-0.1-1.6-0.6-2.8-1.6-3.5
		c-1-0.7-2.2-1.1-3.6-1.1c-1.5,0-2.7,0.3-3.5,1c-0.8,0.7-1.3,1.6-1.3,2.6c0,1,0.3,1.8,0.9,2.5c0.8,0.8,2.4,1.7,4.6,2.5
		c2.7,1.1,4.4,2.1,5.3,3.2c0.7,0.8,1,2,1,3.4s-0.6,2.8-1.8,3.8c-1.2,1.1-2.9,1.6-5.2,1.6c-1.7,0-3.2-0.5-4.7-1.4
		c-0.8-0.5-1.4-1.2-1.9-2c-0.5-0.9-0.8-1.9-0.8-3c0-0.4,0.2-0.7,0.6-0.7h0.3c0.4,0,0.6,0.2,0.6,0.6c0,0.9,0.3,1.7,0.7,2.4
		s0.9,1.2,1.6,1.5c1.2,0.7,2.6,1,4,1c1.5,0,2.7-0.4,3.6-1.2c0.9-0.8,1.4-1.7,1.4-2.9c0-1.2-0.4-2.1-1.1-2.7c-0.6-0.5-1.3-0.9-2-1.3
		c-0.9-0.4-2.4-1.1-4.4-1.9c-1.5-0.7-2.6-1.4-3.3-2.3S155.9,84.2,155.9,82.8z"/>
	<path class="st2" d="M172.9,77.8h14c0.2,0,0.3,0.1,0.5,0.2c0.1,0.1,0.2,0.3,0.2,0.4v0.3c0,0.4-0.2,0.6-0.6,0.6h-14
		c-0.4,0-0.6-0.2-0.6-0.6v-0.3c0-0.2,0.1-0.3,0.2-0.4C172.6,77.8,172.7,77.8,172.9,77.8z M179.7,80.2h0.3c0.4,0,0.6,0.2,0.6,0.6
		v18.5c0,0.2-0.1,0.3-0.2,0.4c-0.1,0.1-0.3,0.2-0.5,0.2h-0.3c-0.2,0-0.3-0.1-0.5-0.2c-0.1-0.1-0.2-0.3-0.2-0.4V80.8
		C179.1,80.4,179.3,80.2,179.7,80.2z"/>
	<path class="st2" d="M194.7,78.5c0.8-0.3,1.4-0.5,2-0.6c0.6-0.1,1.2-0.1,1.8-0.1s1.2,0,1.8,0.1c0.6,0.1,1.3,0.3,2,0.6
		c0.7,0.3,1.4,0.8,1.9,1.3c0.5,0.5,1,1.3,1.4,2.3c0.4,1,0.6,2.1,0.6,3.4V92c0,1.3-0.2,2.5-0.6,3.5c-0.4,1-0.9,1.8-1.4,2.3
		c-0.6,0.5-1.2,1-1.9,1.3c-1.2,0.5-2.4,0.8-3.7,0.8c-1.4,0-2.5-0.2-3.5-0.7c-1-0.5-1.7-1-2.3-1.5c-0.5-0.5-1-1.3-1.4-2.3
		c-0.4-1-0.6-2.1-0.6-3.4v-6.4c0-1.3,0.2-2.5,0.6-3.5c0.4-1,0.9-1.8,1.4-2.3C193.3,79.3,194,78.9,194.7,78.5z M201.5,79.9
		c-0.6-0.3-1.1-0.4-1.6-0.5s-0.9-0.1-1.4-0.1s-0.9,0-1.4,0.1s-1,0.2-1.6,0.5c-0.6,0.3-1.1,0.6-1.6,1c-0.4,0.4-0.8,1.1-1.1,1.9
		c-0.3,0.8-0.5,1.8-0.5,2.8v6.2c0,1.1,0.2,2,0.5,2.8c0.3,0.8,0.7,1.5,1.1,1.9c0.5,0.5,1,0.8,1.6,1.1c0.6,0.3,1.1,0.5,1.6,0.5
		s0.9,0.1,1.4,0.1s0.9,0,1.4-0.1c0.5-0.1,1-0.3,1.6-0.5c0.6-0.3,1.1-0.6,1.5-1.1c0.4-0.5,0.8-1.1,1.1-1.9c0.3-0.8,0.5-1.8,0.5-2.8
		v-6.2c0-1.1-0.2-2-0.5-2.8c-0.3-0.8-0.7-1.4-1.1-1.9C202.6,80.6,202.1,80.2,201.5,79.9z"/>
	<path class="st2" d="M212.4,77.7c0.6,0,1,0.3,1.3,0.8c4.1,6.7,7.8,13.2,11.2,19.3V78.4c0-0.2,0.1-0.3,0.2-0.4
		c0.1-0.1,0.3-0.2,0.5-0.2h0.3c0.2,0,0.3,0.1,0.5,0.2c0.1,0.1,0.2,0.3,0.2,0.4v20.3c0,0.4-0.1,0.7-0.4,0.9c-0.2,0.2-0.6,0.3-1,0.3
		c-0.4,0-0.8-0.2-1.1-0.7L212.9,80v19.3c0,0.2-0.1,0.3-0.2,0.4c-0.1,0.1-0.3,0.2-0.4,0.2h-0.3c-0.2,0-0.3-0.1-0.4-0.2
		c-0.1-0.1-0.2-0.3-0.2-0.4V79C211.3,78.2,211.7,77.7,212.4,77.7z"/>
	<path class="st2" d="M242,77.8h11c0.2,0,0.3,0.1,0.4,0.2c0.1,0.1,0.2,0.3,0.2,0.4v0.3c0,0.2-0.1,0.3-0.2,0.5
		c-0.1,0.1-0.3,0.2-0.4,0.2h-10.7v19H253c0.2,0,0.3,0.1,0.4,0.2c0.1,0.1,0.2,0.3,0.2,0.5v0.3c0,0.2-0.1,0.3-0.2,0.4
		c-0.1,0.1-0.3,0.2-0.4,0.2h-11.1c-0.5,0-0.8-0.1-1-0.3s-0.2-0.5-0.2-0.9V79c0-0.4,0.1-0.7,0.3-0.9C241.2,77.9,241.5,77.8,242,77.8z
		 M244.2,87.7h6.8c0.2,0,0.3,0.1,0.5,0.2c0.1,0.1,0.2,0.3,0.2,0.4v0.3c0,0.4-0.2,0.6-0.6,0.6h-6.8c-0.4,0-0.6-0.2-0.6-0.6v-0.3
		c0-0.2,0.1-0.3,0.2-0.4C243.8,87.7,244,87.7,244.2,87.7z"/>
	<path class="st2" d="M263.6,78.6c0.2-0.6,0.6-0.9,1.2-0.9c0.6,0,1,0.3,1.2,0.9l7.3,20.4c0,0.1,0,0.1,0,0.2c0,0.4-0.2,0.6-0.6,0.6
		h-0.4c-0.3,0-0.5-0.1-0.6-0.4l-6.9-19.6l-6.9,19.6c-0.1,0.3-0.3,0.4-0.6,0.4h-0.4c-0.4,0-0.6-0.2-0.6-0.6c0-0.1,0-0.2,0-0.2
		L263.6,78.6z M262.1,90.2h5.5c0.2,0,0.3,0.1,0.4,0.2c0.1,0.1,0.2,0.3,0.2,0.5v0.3c0,0.2-0.1,0.3-0.2,0.5c-0.1,0.1-0.3,0.2-0.4,0.2
		h-5.5c-0.4,0-0.6-0.2-0.6-0.6v-0.3C261.5,90.4,261.7,90.2,262.1,90.2z"/>
	<path class="st2" d="M278.4,82.8c0-1.4,0.6-2.5,1.7-3.6c1.1-1,2.6-1.5,4.6-1.5c1.9,0,3.6,0.5,4.9,1.5c1.3,1,2,2.5,2.1,4.6
		c0,0.2-0.1,0.3-0.2,0.5c-0.1,0.1-0.3,0.2-0.4,0.2h-0.3c-0.1,0-0.3-0.1-0.4-0.2c-0.1-0.1-0.2-0.3-0.2-0.4c-0.1-1.6-0.6-2.8-1.6-3.5
		c-1-0.7-2.2-1.1-3.6-1.1c-1.5,0-2.7,0.3-3.5,1c-0.8,0.7-1.3,1.6-1.3,2.6c0,1,0.3,1.8,0.9,2.5c0.8,0.8,2.4,1.7,4.6,2.5
		c2.7,1.1,4.4,2.1,5.3,3.2c0.7,0.8,1,2,1,3.4s-0.6,2.8-1.8,3.8c-1.2,1.1-2.9,1.6-5.2,1.6c-1.7,0-3.2-0.5-4.7-1.4
		c-0.8-0.5-1.4-1.2-1.9-2s-0.8-1.9-0.8-3c0-0.4,0.2-0.7,0.6-0.7h0.3c0.4,0,0.6,0.2,0.6,0.6c0,0.9,0.3,1.7,0.7,2.4
		c0.4,0.7,0.9,1.2,1.6,1.5c1.2,0.7,2.6,1,4,1s2.7-0.4,3.6-1.2c0.9-0.8,1.4-1.7,1.4-2.9c0-1.2-0.4-2.1-1.1-2.7
		c-0.6-0.5-1.3-0.9-2-1.3c-0.9-0.4-2.4-1.1-4.4-1.9c-1.5-0.7-2.6-1.4-3.3-2.3C278.7,85.3,278.4,84.2,278.4,82.8z"/>
	<path class="st2" d="M295.3,77.8h14c0.2,0,0.3,0.1,0.5,0.2c0.1,0.1,0.2,0.3,0.2,0.4v0.3c0,0.4-0.2,0.6-0.6,0.6h-14
		c-0.4,0-0.6-0.2-0.6-0.6v-0.3c0-0.2,0.1-0.3,0.2-0.4C295,77.8,295.2,77.8,295.3,77.8z M302.2,80.2h0.3c0.4,0,0.6,0.2,0.6,0.6v18.5
		c0,0.2-0.1,0.3-0.2,0.4c-0.1,0.1-0.3,0.2-0.5,0.2h-0.3c-0.2,0-0.3-0.1-0.5-0.2c-0.1-0.1-0.2-0.3-0.2-0.4V80.8
		C301.5,80.4,301.7,80.2,302.2,80.2z"/>
</g>
<g>
	<path class="st2" d="M139.2,107.4h3.1c0.9,0,1.8,0.3,2.6,0.8c0.4,0.3,0.7,0.7,1,1.2c0.3,0.5,0.4,1.1,0.4,1.8c0,1.1-0.3,1.9-0.9,2.7
		s-1.7,1.1-3.2,1.1h-1.3c-0.1,0-0.2,0-0.3-0.1s-0.1-0.2-0.1-0.3v-0.2c0-0.3,0.1-0.4,0.4-0.4h1.1c1.5,0,2.4-0.3,2.8-0.9
		c0.4-0.5,0.5-1.1,0.5-1.8c0-0.9-0.3-1.6-0.9-2.1c-0.6-0.4-1.3-0.6-2.2-0.6h-2.9V121c0,0.1,0,0.2-0.1,0.3s-0.2,0.1-0.3,0.1h-0.2
		c-0.1,0-0.2,0-0.3-0.1s-0.1-0.2-0.1-0.3v-12.7c0-0.3,0.1-0.6,0.2-0.7S138.8,107.4,139.2,107.4z"/>
	<path class="st2" d="M148.6,107.4h0.2c0.1,0,0.2,0,0.3,0.1s0.1,0.2,0.1,0.3v12.6h6.7c0.3,0,0.4,0.1,0.4,0.4v0.2
		c0,0.1,0,0.2-0.1,0.3s-0.2,0.1-0.3,0.1H149c-0.5,0-0.8-0.3-0.8-0.9v-12.7c0-0.1,0-0.2,0.1-0.3S148.5,107.4,148.6,107.4z"/>
	<path class="st2" d="M162.1,108c0.1-0.4,0.4-0.5,0.8-0.5c0.4,0,0.7,0.2,0.8,0.6l4.6,12.9c0,0,0,0.1,0,0.1c0,0.3-0.1,0.4-0.4,0.4
		h-0.2c-0.2,0-0.3-0.1-0.4-0.3l-4.4-12.4l-4.4,12.4c-0.1,0.2-0.2,0.3-0.4,0.3h-0.2c-0.3,0-0.4-0.1-0.4-0.4c0-0.1,0-0.1,0-0.1
		L162.1,108z M161.1,115.3h3.5c0.1,0,0.2,0,0.3,0.1s0.1,0.2,0.1,0.3v0.2c0,0.1,0,0.2-0.1,0.3s-0.2,0.1-0.3,0.1h-3.5
		c-0.3,0-0.4-0.1-0.4-0.4v-0.2C160.8,115.4,160.9,115.3,161.1,115.3z"/>
	<path class="st2" d="M169.8,120.7c0-0.2,0.1-0.4,0.3-0.7v0l7.3-11.5h-7.4c-0.1,0-0.2,0-0.3-0.1s-0.1-0.2-0.1-0.3v-0.2
		c0-0.1,0-0.2,0.1-0.3s0.2-0.1,0.3-0.1h7.8c0.6,0,0.8,0.2,0.8,0.7c0,0.2-0.1,0.5-0.3,0.7v0l-0.1,0.1l0,0l-7.3,11.5h7.9
		c0.1,0,0.2,0,0.3,0.1s0.1,0.2,0.1,0.3v0.2c0,0.1,0,0.2-0.1,0.3s-0.2,0.1-0.3,0.1h-8.2C170.1,121.4,169.8,121.2,169.8,120.7z"/>
	<path class="st2" d="M184.9,108c0.1-0.4,0.4-0.5,0.8-0.5c0.4,0,0.7,0.2,0.8,0.6l4.6,12.9c0,0,0,0.1,0,0.1c0,0.3-0.1,0.4-0.4,0.4
		h-0.2c-0.2,0-0.3-0.1-0.4-0.3l-4.4-12.4l-4.4,12.4c-0.1,0.2-0.2,0.3-0.4,0.3h-0.2c-0.3,0-0.4-0.1-0.4-0.4c0-0.1,0-0.1,0-0.1
		L184.9,108z M183.9,115.3h3.5c0.1,0,0.2,0,0.3,0.1s0.1,0.2,0.1,0.3v0.2c0,0.1,0,0.2-0.1,0.3s-0.2,0.1-0.3,0.1h-3.5
		c-0.3,0-0.4-0.1-0.4-0.4v-0.2C183.6,115.4,183.7,115.3,183.9,115.3z"/>
	<path class="st2" d="M202.6,108c0.1-0.4,0.4-0.5,0.8-0.5c0.4,0,0.7,0.2,0.8,0.6l4.6,12.9c0,0,0,0.1,0,0.1c0,0.3-0.1,0.4-0.4,0.4
		h-0.2c-0.2,0-0.3-0.1-0.4-0.3l-4.4-12.4l-4.4,12.4c-0.1,0.2-0.2,0.3-0.4,0.3h-0.2c-0.3,0-0.4-0.1-0.4-0.4c0-0.1,0-0.1,0-0.1
		L202.6,108z M201.7,115.3h3.5c0.1,0,0.2,0,0.3,0.1s0.1,0.2,0.1,0.3v0.2c0,0.1,0,0.2-0.1,0.3s-0.2,0.1-0.3,0.1h-3.5
		c-0.3,0-0.4-0.1-0.4-0.4v-0.2C201.3,115.4,201.5,115.3,201.7,115.3z"/>
	<path class="st2" d="M211.4,107.4h2.7c3.2,0,4.8,1.3,4.8,3.8c0,1-0.3,1.9-0.9,2.6c-0.6,0.8-1.6,1.2-3,1.2h-0.2l4.3,5.7
		c0.2,0.2,0.2,0.4,0.2,0.4c0,0.2-0.1,0.3-0.3,0.3h-0.4c-0.2,0-0.3-0.1-0.4-0.2l-4.6-6.1c-0.1-0.2-0.2-0.4-0.2-0.5
		c0-0.4,0.2-0.6,0.7-0.6h0.9c0.6,0,1-0.1,1.4-0.3s0.7-0.4,0.9-0.7c0.4-0.6,0.6-1.2,0.6-1.8c0-1.9-1.3-2.8-3.9-2.8h-2.6V121
		c0,0.1,0,0.2-0.1,0.3s-0.2,0.1-0.3,0.1H211c-0.1,0-0.2,0-0.3-0.1s-0.1-0.2-0.1-0.3v-12.7c0-0.4,0.1-0.6,0.2-0.7
		C210.9,107.5,211.1,107.4,211.4,107.4z"/>
	<path class="st2" d="M219.8,107.4h8.9c0.1,0,0.2,0,0.3,0.1s0.1,0.2,0.1,0.3v0.2c0,0.2-0.1,0.4-0.4,0.4h-8.9c-0.3,0-0.4-0.1-0.4-0.4
		v-0.2c0-0.1,0-0.2,0.1-0.3S219.7,107.4,219.8,107.4z M224.1,109h0.2c0.3,0,0.4,0.1,0.4,0.4V121c0,0.1,0,0.2-0.1,0.3
		s-0.2,0.1-0.3,0.1h-0.2c-0.1,0-0.2,0-0.3-0.1s-0.1-0.2-0.1-0.3v-11.7C223.7,109.1,223.8,109,224.1,109z"/>
</g>
</svg>
